# xmcd CD database file
#
# Track frame offsets:
#	150
#	16727
#	30315
#	46291
#	60831
#	77022
#	91097
#	110127
#	121726
#	139481
#	150564
#	165529
#	184402
#	200422
#	212249
#	227006
#	241324
#	260122
#	273317
#	293082
#	314245
#	329267
#
# Disc length: 4772 seconds
#
# Revision: 14
# Processed by: cddbd v1.5.2PL0 Copyright (c) Steve Scherf et al.
# Submitted via: CDex 1.51
#
DISCID=3512a216
DTITLE=Jools Holland and His Rhythm and Blues Orchestra - Small World Big Band Volume Two
DYEAR=2002
DGENRE=Blues
TTITLE0=Together We Are Strong - Sam Moore and Sam Brown
TTITLE1=In The Dark - Norah Jones
TTITLE2=Snowflake Boogie - Edwin Starr
TTITLE3=The Only Face - Bryan Ferry
TTITLE4=What Goes Around - Dionne Warwick
TTITLE5=Don't You Kiss My Cheek - Tom Jones
TTITLE6=Out Of This World - Chrissie Hynde
TTITLE7=Rock Me - The Blind Boys Of Alabama
TTITLE8=First Time Ever I Saw Your Face - Stereophonics
TTITLE9=Fly Me To The Moon - Huey (Fun Lovin' Criminals)
TTITLE10=The Can Is Open - Badly Drawn Boy
TTITLE11=Yours Truly, Confused N10 - Ray Davies
TTITLE12=Tuxedo Junction - Ray Davies
TTITLE13=Let The Boogie Woogie Roll - Robert Plant
TTITLE14=Drown In My Own Tears - Jeff Beck
TTITLE15=Count Me In - Ruby Turner
TTITLE16=You Got To Serve Somebody - Marianne Faithfull
TTITLE17=Anglegrinder Blues - Jools Holland - Chris Barber - Guy Barker
TTITLE18=Change Is Gonna Come - Beverley Knight
TTITLE19=Teardrops From My Eyes - George Benson
TTITLE20=Dreams - Jimmy Cliff
TTITLE21=If You Wear That Velvet Dress - Bono
EXTD=YEAR: 2002
EXTT0=
EXTT1=
EXTT2=
EXTT3=
EXTT4=
EXTT5=
EXTT6=
EXTT7=
EXTT8=
EXTT9=
EXTT10=
EXTT11=
EXTT12=
EXTT13=
EXTT14=
EXTT15=
EXTT16=
EXTT17=
EXTT18=
EXTT19=
EXTT20=
EXTT21=
PLAYORDER=
